<?xml version="1.0" ?>
<svg xmlns="http://www.w3.org/2000/svg" xmlns:ev="http://www.w3.org/2001/xml-events" xmlns:xlink="http://www.w3.org/1999/xlink" baseProfile="full" height="253.0" version="1.1" width="2345.0">
	<defs/>
	<rect fill="white" height="253.0" width="2345.0" x="0" y="0"/>
	<line stroke="rgb(30,255,30)" stroke-linecap="round" stroke-width="1" x1="50.0" x2="50.0" y1="100.0" y2="102.0"/>
	<line stroke="rgb(0,0,255)" stroke-linecap="round" stroke-width="1" x1="100.0" x2="116.5" y1="50.0" y2="50.0"/>
	<rect fill="rgb(255,255,255)" height="100" stroke="rgb(0,0,0)" stroke-width="1" width="100" x="0.0" y="0.0"/>
	<text fill="black" font-size="20.0px" x="18.0" y="60.0">32x256</text>
	<line stroke="rgb(30,255,30)" stroke-linecap="round" stroke-width="1" x1="183.0" x2="183.0" y1="100.0" y2="104.0"/>
	<line stroke="rgb(0,0,255)" stroke-linecap="round" stroke-width="1" x1="233.0" x2="249.5" y1="50.0" y2="50.0"/>
	<rect fill="rgb(255,255,255)" height="100" stroke="rgb(0,0,0)" stroke-width="1" width="100" x="133.0" y="0.0"/>
	<text fill="black" font-size="20.0px" x="151.0" y="60.0">32x256</text>
	<line stroke="rgb(30,255,30)" stroke-linecap="round" stroke-width="1" x1="316.0" x2="316.0" y1="100.0" y2="106.0"/>
	<line stroke="rgb(0,0,255)" stroke-linecap="round" stroke-width="1" x1="366.0" x2="382.5" y1="50.0" y2="50.0"/>
	<rect fill="rgb(255,255,255)" height="100" stroke="rgb(0,0,0)" stroke-width="1" width="100" x="266.0" y="0.0"/>
	<text fill="black" font-size="20.0px" x="284.0" y="60.0">32x256</text>
	<line stroke="rgb(30,255,30)" stroke-linecap="round" stroke-width="1" x1="449.0" x2="449.0" y1="100.0" y2="108.0"/>
	<line stroke="rgb(0,0,255)" stroke-linecap="round" stroke-width="1" x1="499.0" x2="515.5" y1="50.0" y2="50.0"/>
	<rect fill="rgb(255,255,255)" height="100" stroke="rgb(0,0,0)" stroke-width="1" width="100" x="399.0" y="0.0"/>
	<text fill="black" font-size="20.0px" x="417.0" y="60.0">32x256</text>
	<line stroke="rgb(30,255,30)" stroke-linecap="round" stroke-width="1" x1="582.0" x2="582.0" y1="100.0" y2="110.0"/>
	<line stroke="rgb(0,0,255)" stroke-linecap="round" stroke-width="1" x1="632.0" x2="648.5" y1="50.0" y2="50.0"/>
	<rect fill="rgb(255,255,255)" height="100" stroke="rgb(0,0,0)" stroke-width="1" width="100" x="532.0" y="0.0"/>
	<text fill="black" font-size="20.0px" x="550.0" y="60.0">32x256</text>
	<line stroke="rgb(30,255,30)" stroke-linecap="round" stroke-width="1" x1="715.0" x2="715.0" y1="100.0" y2="112.0"/>
	<line stroke="rgb(0,0,255)" stroke-linecap="round" stroke-width="1" x1="765.0" x2="781.5" y1="50.0" y2="50.0"/>
	<rect fill="rgb(255,255,255)" height="100" stroke="rgb(0,0,0)" stroke-width="1" width="100" x="665.0" y="0.0"/>
	<text fill="black" font-size="20.0px" x="683.0" y="60.0">32x256</text>
	<line stroke="rgb(30,255,30)" stroke-linecap="round" stroke-width="1" x1="848.0" x2="848.0" y1="100.0" y2="114.0"/>
	<line stroke="rgb(0,0,255)" stroke-linecap="round" stroke-width="1" x1="898.0" x2="914.5" y1="50.0" y2="50.0"/>
	<rect fill="rgb(255,255,255)" height="100" stroke="rgb(0,0,0)" stroke-width="1" width="100" x="798.0" y="0.0"/>
	<text fill="black" font-size="20.0px" x="816.0" y="60.0">32x256</text>
	<line stroke="rgb(30,255,30)" stroke-linecap="round" stroke-width="1" x1="981.0" x2="981.0" y1="100.0" y2="116.0"/>
	<line stroke="rgb(0,0,255)" stroke-linecap="round" stroke-width="1" x1="1031.0" x2="1047.5" y1="50.0" y2="50.0"/>
	<rect fill="rgb(255,255,255)" height="100" stroke="rgb(0,0,0)" stroke-width="1" width="100" x="931.0" y="0.0"/>
	<text fill="black" font-size="20.0px" x="949.0" y="60.0">32x256</text>
	<line stroke="rgb(30,255,30)" stroke-linecap="round" stroke-width="1" x1="1114.0" x2="1114.0" y1="100.0" y2="118.0"/>
	<line stroke="rgb(0,0,255)" stroke-linecap="round" stroke-width="1" x1="1164.0" x2="1180.5" y1="50.0" y2="50.0"/>
	<rect fill="rgb(255,255,255)" height="100" stroke="rgb(0,0,0)" stroke-width="1" width="100" x="1064.0" y="0.0"/>
	<text fill="black" font-size="20.0px" x="1082.0" y="60.0">32x256</text>
	<line stroke="rgb(30,255,30)" stroke-linecap="round" stroke-width="1" x1="1247.0" x2="1247.0" y1="100.0" y2="120.0"/>
	<line stroke="rgb(0,0,255)" stroke-linecap="round" stroke-width="1" x1="1297.0" x2="1313.5" y1="50.0" y2="50.0"/>
	<rect fill="rgb(255,255,255)" height="100" stroke="rgb(0,0,0)" stroke-width="1" width="100" x="1197.0" y="0.0"/>
	<text fill="black" font-size="20.0px" x="1215.0" y="60.0">32x256</text>
	<line stroke="rgb(30,255,30)" stroke-linecap="round" stroke-width="1" x1="1380.0" x2="1380.0" y1="100.0" y2="122.0"/>
	<line stroke="rgb(0,0,255)" stroke-linecap="round" stroke-width="1" x1="1430.0" x2="1446.5" y1="50.0" y2="50.0"/>
	<rect fill="rgb(255,255,255)" height="100" stroke="rgb(0,0,0)" stroke-width="1" width="100" x="1330.0" y="0.0"/>
	<text fill="black" font-size="20.0px" x="1348.0" y="60.0">32x256</text>
	<line stroke="rgb(30,255,30)" stroke-linecap="round" stroke-width="1" x1="1513.0" x2="1513.0" y1="100.0" y2="124.0"/>
	<line stroke="rgb(0,0,255)" stroke-linecap="round" stroke-width="1" x1="1563.0" x2="1579.5" y1="50.0" y2="50.0"/>
	<rect fill="rgb(255,255,255)" height="100" stroke="rgb(0,0,0)" stroke-width="1" width="100" x="1463.0" y="0.0"/>
	<text fill="black" font-size="20.0px" x="1481.0" y="60.0">32x256</text>
	<line stroke="rgb(30,255,30)" stroke-linecap="round" stroke-width="1" x1="1646.0" x2="1646.0" y1="100.0" y2="126.0"/>
	<line stroke="rgb(0,0,255)" stroke-linecap="round" stroke-width="1" x1="1696.0" x2="1712.5" y1="50.0" y2="50.0"/>
	<rect fill="rgb(255,255,255)" height="100" stroke="rgb(0,0,0)" stroke-width="1" width="100" x="1596.0" y="0.0"/>
	<text fill="black" font-size="20.0px" x="1614.0" y="60.0">32x256</text>
	<line stroke="rgb(30,255,30)" stroke-linecap="round" stroke-width="1" x1="1779.0" x2="1779.0" y1="100.0" y2="128.0"/>
	<line stroke="rgb(0,0,255)" stroke-linecap="round" stroke-width="1" x1="1829.0" x2="1845.5" y1="50.0" y2="50.0"/>
	<rect fill="rgb(255,255,255)" height="100" stroke="rgb(0,0,0)" stroke-width="1" width="100" x="1729.0" y="0.0"/>
	<text fill="black" font-size="20.0px" x="1747.0" y="60.0">32x256</text>
	<line stroke="rgb(30,255,30)" stroke-linecap="round" stroke-width="1" x1="1912.0" x2="1912.0" y1="100.0" y2="130.0"/>
	<line stroke="rgb(0,0,255)" stroke-linecap="round" stroke-width="1" x1="1962.0" x2="1978.5" y1="50.0" y2="50.0"/>
	<rect fill="rgb(255,255,255)" height="100" stroke="rgb(0,0,0)" stroke-width="1" width="100" x="1862.0" y="0.0"/>
	<text fill="black" font-size="20.0px" x="1880.0" y="60.0">32x256</text>
	<line stroke="rgb(30,255,30)" stroke-linecap="round" stroke-width="1" x1="2045.0" x2="2045.0" y1="100.0" y2="132.0"/>
	<line stroke="rgb(0,0,255)" stroke-linecap="round" stroke-width="1" x1="2095.0" x2="2111.5" y1="50.0" y2="50.0"/>
	<rect fill="rgb(255,255,255)" height="100" stroke="rgb(0,0,0)" stroke-width="1" width="100" x="1995.0" y="0.0"/>
	<text fill="black" font-size="20.0px" x="2013.0" y="60.0">32x256</text>
	<line stroke="rgb(0,0,255)" stroke-linecap="round" stroke-width="1" x1="116.5" x2="116.5" y1="50.0" y2="233.0"/>
	<line stroke="rgb(0,0,255)" stroke-linecap="round" stroke-width="1" x1="249.5" x2="249.5" y1="50.0" y2="233.0"/>
	<line stroke="rgb(0,0,255)" stroke-linecap="round" stroke-width="1" x1="382.5" x2="382.5" y1="50.0" y2="233.0"/>
	<line stroke="rgb(0,0,255)" stroke-linecap="round" stroke-width="1" x1="515.5" x2="515.5" y1="50.0" y2="233.0"/>
	<line stroke="rgb(0,0,255)" stroke-linecap="round" stroke-width="1" x1="648.5" x2="648.5" y1="50.0" y2="233.0"/>
	<line stroke="rgb(0,0,255)" stroke-linecap="round" stroke-width="1" x1="781.5" x2="781.5" y1="50.0" y2="233.0"/>
	<line stroke="rgb(0,0,255)" stroke-linecap="round" stroke-width="1" x1="914.5" x2="914.5" y1="50.0" y2="233.0"/>
	<line stroke="rgb(0,0,255)" stroke-linecap="round" stroke-width="1" x1="1047.5" x2="1047.5" y1="50.0" y2="233.0"/>
	<line stroke="rgb(0,0,255)" stroke-linecap="round" stroke-width="1" x1="1180.5" x2="1180.5" y1="50.0" y2="233.0"/>
	<line stroke="rgb(0,0,255)" stroke-linecap="round" stroke-width="1" x1="1313.5" x2="1313.5" y1="50.0" y2="233.0"/>
	<line stroke="rgb(0,0,255)" stroke-linecap="round" stroke-width="1" x1="1446.5" x2="1446.5" y1="50.0" y2="233.0"/>
	<line stroke="rgb(0,0,255)" stroke-linecap="round" stroke-width="1" x1="1579.5" x2="1579.5" y1="50.0" y2="233.0"/>
	<line stroke="rgb(0,0,255)" stroke-linecap="round" stroke-width="1" x1="1712.5" x2="1712.5" y1="50.0" y2="233.0"/>
	<line stroke="rgb(0,0,255)" stroke-linecap="round" stroke-width="1" x1="1845.5" x2="1845.5" y1="50.0" y2="233.0"/>
	<line stroke="rgb(0,0,255)" stroke-linecap="round" stroke-width="1" x1="1978.5" x2="1978.5" y1="50.0" y2="233.0"/>
	<line stroke="rgb(0,0,255)" stroke-linecap="round" stroke-width="1" x1="2111.5" x2="2111.5" y1="50.0" y2="233.0"/>
	<line stroke="rgb(30,255,30)" stroke-linecap="round" stroke-width="1" x1="50.0" x2="2195.0" y1="102.0" y2="102.0"/>
	<line stroke="rgb(30,255,30)" stroke-linecap="round" stroke-width="1" x1="183.0" x2="2195.0" y1="104.0" y2="104.0"/>
	<line stroke="rgb(30,255,30)" stroke-linecap="round" stroke-width="1" x1="316.0" x2="2195.0" y1="106.0" y2="106.0"/>
	<line stroke="rgb(30,255,30)" stroke-linecap="round" stroke-width="1" x1="449.0" x2="2195.0" y1="108.0" y2="108.0"/>
	<line stroke="rgb(30,255,30)" stroke-linecap="round" stroke-width="1" x1="582.0" x2="2195.0" y1="110.0" y2="110.0"/>
	<line stroke="rgb(30,255,30)" stroke-linecap="round" stroke-width="1" x1="715.0" x2="2195.0" y1="112.0" y2="112.0"/>
	<line stroke="rgb(30,255,30)" stroke-linecap="round" stroke-width="1" x1="848.0" x2="2195.0" y1="114.0" y2="114.0"/>
	<line stroke="rgb(30,255,30)" stroke-linecap="round" stroke-width="1" x1="981.0" x2="2195.0" y1="116.0" y2="116.0"/>
	<line stroke="rgb(30,255,30)" stroke-linecap="round" stroke-width="1" x1="1114.0" x2="2195.0" y1="118.0" y2="118.0"/>
	<line stroke="rgb(30,255,30)" stroke-linecap="round" stroke-width="1" x1="1247.0" x2="2195.0" y1="120.0" y2="120.0"/>
	<line stroke="rgb(30,255,30)" stroke-linecap="round" stroke-width="1" x1="1380.0" x2="2195.0" y1="122.0" y2="122.0"/>
	<line stroke="rgb(30,255,30)" stroke-linecap="round" stroke-width="1" x1="1513.0" x2="2195.0" y1="124.0" y2="124.0"/>
	<line stroke="rgb(30,255,30)" stroke-linecap="round" stroke-width="1" x1="1646.0" x2="2195.0" y1="126.0" y2="126.0"/>
	<line stroke="rgb(30,255,30)" stroke-linecap="round" stroke-width="1" x1="1779.0" x2="2195.0" y1="128.0" y2="128.0"/>
	<line stroke="rgb(30,255,30)" stroke-linecap="round" stroke-width="1" x1="1912.0" x2="2195.0" y1="130.0" y2="130.0"/>
	<line stroke="rgb(30,255,30)" stroke-linecap="round" stroke-width="1" x1="2045.0" x2="2195.0" y1="132.0" y2="132.0"/>
	<line stroke="rgb(0,0,255)" stroke-linecap="round" stroke-width="1" x1="2220.0" x2="2220.0" y1="233.0" y2="133.0"/>
	<line stroke="rgb(30,255,30)" stroke-linecap="round" stroke-width="1" x1="2245.0" x2="2345.0" y1="91.5" y2="91.5"/>
	<text fill="black" font-size="20.0px" x="2245.0" y="90.5">DATA: 32</text>
	<polygon fill="rgb(255,255,255)" points="2245.0,75.0 2245.0,133.0 2195.0,158.0 2195.0,50.0" stroke="rgb(0,0,0)" stroke-width="1"/>
	<line stroke="rgb(0,0,255)" stroke-linecap="round" stroke-width="1" x1="0" x2="2220.0" y1="233.0" y2="233.0"/>
	<text fill="black" font-size="20.0px" x="0" y="232.0">ADDR: 12</text>
	<text fill="black" font-size="20.0px" x="0" y="253.0">32x4096</text>
</svg>
