<?xml version="1.0" ?>
<svg xmlns="http://www.w3.org/2000/svg" xmlns:ev="http://www.w3.org/2001/xml-events" xmlns:xlink="http://www.w3.org/1999/xlink" baseProfile="full" height="338.0" version="1.1" width="677.0">
	<defs/>
	<rect fill="white" height="338.0" width="677.0" x="0" y="0"/>
	<line stroke="rgb(30,255,30)" stroke-linecap="round" stroke-width="1" x1="50.0" x2="50.0" y1="100.0" y2="102.0"/>
	<line stroke="rgb(0,0,255)" stroke-linecap="round" stroke-width="1" x1="100.0" x2="104.5" y1="50.0" y2="50.0"/>
	<rect fill="rgb(255,255,255)" height="100" stroke="rgb(0,0,0)" stroke-width="1" width="100" x="0.0" y="0.0"/>
	<text fill="black" font-size="20.0px" x="18.0" y="60.0">32x512</text>
	<line stroke="rgb(30,255,30)" stroke-linecap="round" stroke-width="1" x1="159.0" x2="159.0" y1="100.0" y2="104.0"/>
	<line stroke="rgb(0,0,255)" stroke-linecap="round" stroke-width="1" x1="209.0" x2="213.5" y1="50.0" y2="50.0"/>
	<rect fill="rgb(255,255,255)" height="100" stroke="rgb(0,0,0)" stroke-width="1" width="100" x="109.0" y="0.0"/>
	<text fill="black" font-size="20.0px" x="127.0" y="60.0">32x512</text>
	<line stroke="rgb(30,255,30)" stroke-linecap="round" stroke-width="1" x1="268.0" x2="268.0" y1="100.0" y2="106.0"/>
	<line stroke="rgb(0,0,255)" stroke-linecap="round" stroke-width="1" x1="318.0" x2="322.5" y1="50.0" y2="50.0"/>
	<rect fill="rgb(255,255,255)" height="100" stroke="rgb(0,0,0)" stroke-width="1" width="100" x="218.0" y="0.0"/>
	<text fill="black" font-size="20.0px" x="236.0" y="60.0">32x512</text>
	<line stroke="rgb(30,255,30)" stroke-linecap="round" stroke-width="1" x1="377.0" x2="377.0" y1="100.0" y2="108.0"/>
	<line stroke="rgb(0,0,255)" stroke-linecap="round" stroke-width="1" x1="427.0" x2="431.5" y1="50.0" y2="50.0"/>
	<rect fill="rgb(255,255,255)" height="100" stroke="rgb(0,0,0)" stroke-width="1" width="100" x="327.0" y="0.0"/>
	<text fill="black" font-size="20.0px" x="345.0" y="60.0">32x512</text>
	<line stroke="rgb(30,255,30)" stroke-linecap="round" stroke-width="1" x1="50.0" x2="50.0" y1="209.0" y2="211.0"/>
	<line stroke="rgb(0,0,255)" stroke-linecap="round" stroke-width="1" x1="100.0" x2="104.5" y1="159.0" y2="159.0"/>
	<rect fill="rgb(255,255,255)" height="100" stroke="rgb(0,0,0)" stroke-width="1" width="100" x="0.0" y="109.0"/>
	<text fill="black" font-size="20.0px" x="18.0" y="169.0">32x512</text>
	<line stroke="rgb(30,255,30)" stroke-linecap="round" stroke-width="1" x1="159.0" x2="159.0" y1="209.0" y2="213.0"/>
	<line stroke="rgb(0,0,255)" stroke-linecap="round" stroke-width="1" x1="209.0" x2="213.5" y1="159.0" y2="159.0"/>
	<rect fill="rgb(255,255,255)" height="100" stroke="rgb(0,0,0)" stroke-width="1" width="100" x="109.0" y="109.0"/>
	<text fill="black" font-size="20.0px" x="127.0" y="169.0">32x512</text>
	<line stroke="rgb(30,255,30)" stroke-linecap="round" stroke-width="1" x1="268.0" x2="268.0" y1="209.0" y2="215.0"/>
	<line stroke="rgb(0,0,255)" stroke-linecap="round" stroke-width="1" x1="318.0" x2="322.5" y1="159.0" y2="159.0"/>
	<rect fill="rgb(255,255,255)" height="100" stroke="rgb(0,0,0)" stroke-width="1" width="100" x="218.0" y="109.0"/>
	<text fill="black" font-size="20.0px" x="236.0" y="169.0">32x512</text>
	<line stroke="rgb(30,255,30)" stroke-linecap="round" stroke-width="1" x1="377.0" x2="377.0" y1="209.0" y2="217.0"/>
	<line stroke="rgb(0,0,255)" stroke-linecap="round" stroke-width="1" x1="427.0" x2="431.5" y1="159.0" y2="159.0"/>
	<rect fill="rgb(255,255,255)" height="100" stroke="rgb(0,0,0)" stroke-width="1" width="100" x="327.0" y="109.0"/>
	<text fill="black" font-size="20.0px" x="345.0" y="169.0">32x512</text>
	<line stroke="rgb(0,0,255)" stroke-linecap="round" stroke-width="1" x1="104.5" x2="104.5" y1="50.0" y2="318.0"/>
	<line stroke="rgb(0,0,255)" stroke-linecap="round" stroke-width="1" x1="213.5" x2="213.5" y1="50.0" y2="318.0"/>
	<line stroke="rgb(0,0,255)" stroke-linecap="round" stroke-width="1" x1="322.5" x2="322.5" y1="50.0" y2="318.0"/>
	<line stroke="rgb(0,0,255)" stroke-linecap="round" stroke-width="1" x1="431.5" x2="431.5" y1="50.0" y2="318.0"/>
	<line stroke="rgb(30,255,30)" stroke-linecap="round" stroke-width="1" x1="50.0" x2="527.0" y1="102.0" y2="102.0"/>
	<line stroke="rgb(30,255,30)" stroke-linecap="round" stroke-width="1" x1="50.0" x2="527.0" y1="211.0" y2="211.0"/>
	<line stroke="rgb(30,255,30)" stroke-linecap="round" stroke-width="1" x1="159.0" x2="527.0" y1="104.0" y2="104.0"/>
	<line stroke="rgb(30,255,30)" stroke-linecap="round" stroke-width="1" x1="159.0" x2="527.0" y1="213.0" y2="213.0"/>
	<line stroke="rgb(30,255,30)" stroke-linecap="round" stroke-width="1" x1="268.0" x2="527.0" y1="106.0" y2="106.0"/>
	<line stroke="rgb(30,255,30)" stroke-linecap="round" stroke-width="1" x1="268.0" x2="527.0" y1="215.0" y2="215.0"/>
	<line stroke="rgb(30,255,30)" stroke-linecap="round" stroke-width="1" x1="377.0" x2="527.0" y1="108.0" y2="108.0"/>
	<line stroke="rgb(30,255,30)" stroke-linecap="round" stroke-width="1" x1="377.0" x2="527.0" y1="217.0" y2="217.0"/>
	<line stroke="rgb(0,0,255)" stroke-linecap="round" stroke-width="1" x1="552.0" x2="552.0" y1="318.0" y2="218.0"/>
	<line stroke="rgb(30,255,30)" stroke-linecap="round" stroke-width="1" x1="577.0" x2="677.0" y1="134.0" y2="134.0"/>
	<text fill="black" font-size="20.0px" x="577.0" y="133.0">DATA: 64</text>
	<polygon fill="rgb(255,255,255)" points="577.0,75.0 577.0,218.0 527.0,243.0 527.0,50.0" stroke="rgb(0,0,0)" stroke-width="1"/>
	<line stroke="rgb(0,0,255)" stroke-linecap="round" stroke-width="1" x1="0" x2="552.0" y1="318.0" y2="318.0"/>
	<text fill="black" font-size="20.0px" x="0" y="317.0">ADDR: 11</text>
	<text fill="black" font-size="20.0px" x="0" y="338.0">64x2048</text>
</svg>
