<?xml version="1.0" ?>
<svg xmlns="http://www.w3.org/2000/svg" xmlns:ev="http://www.w3.org/2001/xml-events" xmlns:xlink="http://www.w3.org/1999/xlink" baseProfile="full" height="330.0" version="1.1" width="455.0">
	<defs/>
	<rect fill="white" height="330.0" width="455.0" x="0" y="0"/>
	<line stroke="rgb(30,255,30)" stroke-linecap="round" stroke-width="1" x1="50.0" x2="50.0" y1="100.0" y2="102.0"/>
	<line stroke="rgb(0,0,255)" stroke-linecap="round" stroke-width="1" x1="100.0" x2="102.5" y1="50.0" y2="50.0"/>
	<rect fill="rgb(255,255,255)" height="100" stroke="rgb(0,0,0)" stroke-width="1" width="100" x="0.0" y="0.0"/>
	<text fill="black" font-size="20.0px" x="18.0" y="60.0">32x512</text>
	<line stroke="rgb(30,255,30)" stroke-linecap="round" stroke-width="1" x1="155.0" x2="155.0" y1="100.0" y2="104.0"/>
	<line stroke="rgb(0,0,255)" stroke-linecap="round" stroke-width="1" x1="205.0" x2="207.5" y1="50.0" y2="50.0"/>
	<rect fill="rgb(255,255,255)" height="100" stroke="rgb(0,0,0)" stroke-width="1" width="100" x="105.0" y="0.0"/>
	<text fill="black" font-size="20.0px" x="123.0" y="60.0">32x512</text>
	<line stroke="rgb(30,255,30)" stroke-linecap="round" stroke-width="1" x1="50.0" x2="50.0" y1="205.0" y2="207.0"/>
	<line stroke="rgb(0,0,255)" stroke-linecap="round" stroke-width="1" x1="100.0" x2="102.5" y1="155.0" y2="155.0"/>
	<rect fill="rgb(255,255,255)" height="100" stroke="rgb(0,0,0)" stroke-width="1" width="100" x="0.0" y="105.0"/>
	<text fill="black" font-size="20.0px" x="18.0" y="165.0">32x512</text>
	<line stroke="rgb(30,255,30)" stroke-linecap="round" stroke-width="1" x1="155.0" x2="155.0" y1="205.0" y2="209.0"/>
	<line stroke="rgb(0,0,255)" stroke-linecap="round" stroke-width="1" x1="205.0" x2="207.5" y1="155.0" y2="155.0"/>
	<rect fill="rgb(255,255,255)" height="100" stroke="rgb(0,0,0)" stroke-width="1" width="100" x="105.0" y="105.0"/>
	<text fill="black" font-size="20.0px" x="123.0" y="165.0">32x512</text>
	<line stroke="rgb(0,0,255)" stroke-linecap="round" stroke-width="1" x1="102.5" x2="102.5" y1="50.0" y2="310.0"/>
	<line stroke="rgb(0,0,255)" stroke-linecap="round" stroke-width="1" x1="207.5" x2="207.5" y1="50.0" y2="310.0"/>
	<line stroke="rgb(30,255,30)" stroke-linecap="round" stroke-width="1" x1="50.0" x2="305.0" y1="102.0" y2="102.0"/>
	<line stroke="rgb(30,255,30)" stroke-linecap="round" stroke-width="1" x1="50.0" x2="305.0" y1="207.0" y2="207.0"/>
	<line stroke="rgb(30,255,30)" stroke-linecap="round" stroke-width="1" x1="155.0" x2="305.0" y1="104.0" y2="104.0"/>
	<line stroke="rgb(30,255,30)" stroke-linecap="round" stroke-width="1" x1="155.0" x2="305.0" y1="209.0" y2="209.0"/>
	<line stroke="rgb(0,0,255)" stroke-linecap="round" stroke-width="1" x1="330.0" x2="330.0" y1="310.0" y2="210.0"/>
	<line stroke="rgb(30,255,30)" stroke-linecap="round" stroke-width="1" x1="355.0" x2="455.0" y1="130.0" y2="130.0"/>
	<text fill="black" font-size="20.0px" x="355.0" y="129.0">DATA: 64</text>
	<polygon fill="rgb(255,255,255)" points="355.0,75.0 355.0,210.0 305.0,235.0 305.0,50.0" stroke="rgb(0,0,0)" stroke-width="1"/>
	<line stroke="rgb(0,0,255)" stroke-linecap="round" stroke-width="1" x1="0" x2="330.0" y1="310.0" y2="310.0"/>
	<text fill="black" font-size="20.0px" x="0" y="309.0">ADDR: 10</text>
	<text fill="black" font-size="20.0px" x="0" y="330.0">64x1024</text>
</svg>
